<svg aria-hidden="true" style="position: absolute; width: 0; height: 0; overflow: hidden;" version="1.1" xmlns="http://www.w3.org/2000/svg" xmlns:xlink="http://www.w3.org/1999/xlink">
<defs>
<symbol id="icon-burger-menu" viewBox="0 0 32 32">
<path d="M5.333 8h21.333v2.667h-21.333v-2.667zM10.666 14.667h16v2.667h-16v-2.667zM17.333 21.333h9.333v2.667h-9.333v-2.667z"></path>
</symbol>
<symbol id="icon-podcast-green" viewBox="0 0 31 32">
<path fill="#aab91e" style="fill: var(--color1, #aab91e)" d="M3.879 0.485h23.273c2.142 0 3.879 1.737 3.879 3.879v23.273c0 2.142-1.737 3.879-3.879 3.879h-23.273c-2.142 0-3.879-1.737-3.879-3.879v-23.273c0-2.142 1.737-3.879 3.879-3.879z"></path>
<path fill="#000" style="fill: var(--color2, #000)" d="M15.515 1.455c8.033 0 14.545 6.512 14.545 14.545s-6.512 14.545-14.545 14.545c-8.033 0-14.545-6.512-14.545-14.545s6.512-14.545 14.545-14.545z"></path>
<path fill="#aab91e" style="fill: var(--color1, #aab91e)" d="M7.442 1.455c-0.851-0.002-1.693 0.163-2.48 0.488s-1.501 0.801-2.102 1.403c-0.602 0.602-1.078 1.316-1.403 2.102s-0.49 1.629-0.488 2.48v16.145c-0.002 0.851 0.163 1.693 0.488 2.48s0.801 1.501 1.403 2.102 1.316 1.078 2.102 1.403c0.786 0.324 1.629 0.49 2.48 0.488h16.145c0.851 0.002 1.693-0.163 2.48-0.488s1.501-0.801 2.102-1.403 1.078-1.316 1.403-2.102c0.324-0.786 0.49-1.629 0.488-2.48v-16.145c0.002-0.851-0.163-1.693-0.488-2.48s-0.801-1.501-1.403-2.102-1.316-1.078-2.102-1.403c-0.786-0.324-1.629-0.49-2.48-0.488h-16.145zM15.349 4.565c2.832 0 5.393 1.095 7.345 3.139 1.483 1.539 2.315 3.172 2.742 5.323 0.146 0.715 0.146 2.665 0.008 3.47-0.453 2.558-1.854 4.851-3.925 6.421-0.738 0.559-2.543 1.53-2.832 1.53-0.109 0-0.117-0.109-0.070-0.559 0.090-0.72 0.175-0.866 0.582-1.037 0.648-0.269 1.756-1.061 2.434-1.737 1.184-1.184 2.025-2.666 2.434-4.29 0.255-1 0.222-3.221-0.057-4.247-0.881-3.268-3.552-5.805-6.818-6.487-0.946-0.194-2.675-0.194-3.636 0-3.305 0.683-6.043 3.348-6.875 6.701-0.223 0.913-0.223 3.135 0 4.044 0.554 2.221 1.989 4.255 3.868 5.468 0.37 0.246 0.815 0.497 1 0.574 0.406 0.175 0.497 0.323 0.572 1.036 0.047 0.441 0.037 0.564-0.065 0.564-0.066 0-0.564-0.214-1.090-0.465l-0.047-0.037c-2.997-1.473-4.915-3.967-5.615-7.287-0.17-0.857-0.204-2.897-0.033-3.684 0.435-2.112 1.269-3.759 2.655-5.217 1.999-2.108 4.57-3.221 7.429-3.221h-0.004zM15.515 7.975c0.449-0.001 0.898 0.042 1.339 0.127 3.377 0.753 5.767 4.13 5.303 7.481-0.185 1.354-0.648 2.463-1.472 3.495-0.407 0.521-1.397 1.393-1.572 1.393-0.029 0-0.057-0.332-0.057-0.73v-0.735l0.502-0.601c1.903-2.277 1.766-5.459-0.308-7.542-0.805-0.815-1.738-1.294-2.941-1.51-0.775-0.146-0.937-0.146-1.752-0.010-1.24 0.199-2.197 0.676-3.050 1.52-2.083 2.065-2.221 5.265-0.316 7.542l0.502 0.601v0.739c0 0.407-0.034 0.734-0.076 0.734-0.033 0-0.317-0.194-0.621-0.436l-0.043-0.015c-1.008-0.805-1.898-2.23-2.268-3.632-0.222-0.847-0.222-2.452 0.010-3.296 0.611-2.277 2.292-4.044 4.617-4.872 0.497-0.175 1.372-0.27 2.196-0.255l0.007 0.001zM15.354 11.596c0.379 0 0.753 0.076 1.028 0.218 0.586 0.308 1.076 0.899 1.259 1.525 0.564 1.913-1.463 3.589-3.301 2.732h-0.014c-0.866-0.403-1.331-1.16-1.341-2.145 0-0.89 0.492-1.662 1.349-2.116 0.27-0.142 0.644-0.214 1.023-0.214l-0.004 0.001zM15.344 17.331c1.199-0.005 2.065 0.421 2.386 1.174 0.241 0.564 0.152 2.339-0.265 5.214-0.279 2.007-0.436 2.514-0.823 2.855-0.535 0.473-1.288 0.606-2.008 0.35h-0.004c-0.866-0.313-1.052-0.735-1.412-3.206-0.411-2.874-0.502-4.65-0.259-5.214 0.316-0.748 1.178-1.168 2.385-1.174l-0.001 0.001z"></path>
</symbol>
<symbol id="icon-podcast" viewBox="0 0 31 32">
<path d="M6.89 0.516c-0.906-0.003-1.803 0.174-2.64 0.519s-1.598 0.853-2.238 1.493c-0.64 0.64-1.148 1.401-1.493 2.238s-0.522 1.734-0.519 2.64v17.187c-0.003 0.906 0.174 1.803 0.519 2.64s0.853 1.598 1.493 2.238 1.401 1.148 2.238 1.493c0.837 0.345 1.734 0.522 2.64 0.519h17.187c0.906 0.003 1.803-0.174 2.64-0.519s1.598-0.853 2.238-1.493 1.148-1.401 1.493-2.238c0.345-0.837 0.522-1.734 0.519-2.64v-17.187c0.003-0.906-0.174-1.803-0.519-2.64s-0.853-1.598-1.493-2.238-1.401-1.148-2.238-1.493c-0.837-0.345-1.734-0.522-2.64-0.519h-17.187zM15.307 3.827c3.014 0 5.741 1.165 7.818 3.342 1.578 1.638 2.465 3.376 2.919 5.666 0.156 0.762 0.156 2.837 0.009 3.694-0.482 2.723-1.974 5.164-4.178 6.835-0.786 0.595-2.707 1.629-3.015 1.629-0.116 0-0.125-0.116-0.075-0.595 0.096-0.766 0.186-0.922 0.619-1.104 0.69-0.286 1.87-1.129 2.591-1.849 1.26-1.26 2.156-2.838 2.591-4.567 0.272-1.064 0.236-3.429-0.061-4.521-0.938-3.479-3.781-6.179-7.258-6.906-1.007-0.206-2.848-0.206-3.871 0-3.519 0.727-6.433 3.564-7.319 7.133-0.237 0.972-0.237 3.337 0 4.305 0.589 2.364 2.117 4.53 4.118 5.821 0.394 0.262 0.867 0.529 1.064 0.611 0.433 0.186 0.529 0.344 0.609 1.103 0.050 0.469 0.040 0.6-0.070 0.6-0.071 0-0.6-0.227-1.16-0.494l-0.050-0.040c-3.191-1.568-5.233-4.223-5.978-7.757-0.181-0.913-0.217-3.084-0.035-3.921 0.464-2.248 1.351-4.002 2.827-5.554 2.128-2.244 4.865-3.429 7.908-3.429h-0.004zM15.484 7.457c0.478-0.001 0.956 0.044 1.426 0.135 3.595 0.801 6.139 4.396 5.645 7.964-0.196 1.441-0.69 2.622-1.567 3.72-0.434 0.555-1.487 1.483-1.673 1.483-0.031 0-0.061-0.353-0.061-0.777v-0.782l0.534-0.64c2.026-2.424 1.88-5.811-0.328-8.028-0.856-0.867-1.85-1.377-3.131-1.607-0.825-0.156-0.998-0.156-1.865-0.011-1.32 0.212-2.339 0.72-3.247 1.618-2.217 2.198-2.364 5.604-0.337 8.028l0.534 0.64v0.787c0 0.434-0.036 0.781-0.081 0.781-0.035 0-0.338-0.206-0.661-0.464l-0.046-0.015c-1.073-0.856-2.021-2.374-2.415-3.866-0.236-0.902-0.236-2.61 0.011-3.508 0.65-2.424 2.44-4.304 4.915-5.186 0.529-0.187 1.46-0.287 2.338-0.272l0.008 0.001zM15.313 11.312c0.403 0 0.801 0.081 1.095 0.232 0.624 0.328 1.145 0.957 1.34 1.623 0.6 2.036-1.557 3.821-3.514 2.908h-0.015c-0.922-0.429-1.417-1.235-1.427-2.284 0-0.947 0.524-1.769 1.436-2.253 0.287-0.151 0.686-0.227 1.089-0.227l-0.004 0.001zM15.302 17.417c1.276-0.005 2.198 0.448 2.54 1.249 0.257 0.6 0.162 2.49-0.283 5.55-0.297 2.137-0.464 2.676-0.876 3.040-0.57 0.503-1.371 0.645-2.138 0.373h-0.004c-0.922-0.333-1.12-0.782-1.503-3.413-0.437-3.059-0.534-4.95-0.276-5.55 0.337-0.797 1.254-1.244 2.539-1.249l-0.001 0.001z"></path>
</symbol>
<symbol id="icon-spotify" viewBox="0 0 31 32">
<path d="M22.768 22.343c0-0.431-0.202-0.774-0.606-1.030-2.599-1.549-5.61-2.323-9.030-2.323-1.791 0-3.724 0.229-5.798 0.687-0.566 0.121-0.848 0.471-0.848 1.050 0 0.269 0.091 0.502 0.273 0.697s0.421 0.293 0.717 0.293c0.067 0 0.317-0.054 0.747-0.162 1.778-0.364 3.414-0.545 4.909-0.545 3.044 0 5.717 0.694 8.020 2.081 0.256 0.148 0.478 0.222 0.667 0.222 0.256 0 0.478-0.091 0.667-0.273s0.283-0.414 0.283-0.697zM24.707 18c0-0.539-0.236-0.95-0.707-1.232-3.192-1.899-6.882-2.848-11.071-2.848-2.061 0-4.101 0.283-6.121 0.848-0.646 0.175-0.97 0.606-0.97 1.293 0 0.337 0.118 0.623 0.354 0.859s0.522 0.354 0.859 0.354c0.094 0 0.343-0.054 0.747-0.162 1.643-0.444 3.333-0.667 5.071-0.667 3.758 0 7.044 0.835 9.859 2.505 0.323 0.175 0.579 0.263 0.768 0.263 0.337 0 0.623-0.118 0.859-0.354s0.354-0.522 0.354-0.859zM26.889 12.99c0-0.633-0.269-1.104-0.808-1.414-1.697-0.983-3.67-1.727-5.919-2.232s-4.559-0.758-6.929-0.758c-2.747 0-5.199 0.316-7.354 0.95-0.31 0.094-0.569 0.266-0.778 0.515s-0.313 0.576-0.313 0.98c0 0.418 0.138 0.768 0.414 1.050s0.623 0.424 1.040 0.424c0.148 0 0.417-0.054 0.808-0.162 1.791-0.498 3.859-0.748 6.202-0.748 2.141 0 4.226 0.229 6.253 0.687s3.734 1.098 5.121 1.919c0.283 0.162 0.552 0.242 0.808 0.242 0.39 0 0.731-0.138 1.020-0.414s0.434-0.623 0.434-1.040zM31.030 16c0 2.815-0.694 5.411-2.081 7.788s-3.269 4.259-5.647 5.647c-2.377 1.387-4.973 2.081-7.788 2.081s-5.411-0.694-7.788-2.081c-2.377-1.387-4.259-3.269-5.646-5.647s-2.081-4.973-2.081-7.788 0.694-5.411 2.081-7.788c1.387-2.377 3.269-4.259 5.646-5.646s4.973-2.081 7.788-2.081 5.411 0.694 7.788 2.081c2.377 1.387 4.259 3.269 5.647 5.646s2.081 4.973 2.081 7.788z"></path>
</symbol>
<symbol id="icon-spotify-green" viewBox="0 0 31 32">
<path fill="#000" style="fill: var(--color2, #000)" d="M15.515 0.485c8.569 0 15.515 6.946 15.515 15.515s-6.946 15.515-15.515 15.515c-8.569 0-15.515-6.946-15.515-15.515s6.946-15.515 15.515-15.515z"></path>
<path fill="#aab91e" style="fill: var(--color1, #aab91e)" d="M22.768 22.343c0-0.431-0.202-0.774-0.606-1.030-2.599-1.549-5.61-2.323-9.030-2.323-1.791 0-3.724 0.229-5.798 0.687-0.566 0.121-0.848 0.471-0.848 1.050 0 0.269 0.091 0.502 0.273 0.697s0.421 0.293 0.717 0.293c0.067 0 0.317-0.054 0.747-0.162 1.778-0.364 3.414-0.545 4.909-0.545 3.044 0 5.717 0.694 8.020 2.081 0.256 0.148 0.478 0.222 0.667 0.222 0.256 0 0.478-0.091 0.667-0.273s0.283-0.414 0.283-0.697zM24.707 18c0-0.539-0.236-0.95-0.707-1.232-3.192-1.899-6.882-2.848-11.071-2.848-2.061 0-4.101 0.283-6.121 0.848-0.646 0.175-0.97 0.606-0.97 1.293 0 0.337 0.118 0.623 0.354 0.859s0.522 0.354 0.859 0.354c0.094 0 0.343-0.054 0.747-0.162 1.643-0.444 3.333-0.667 5.071-0.667 3.758 0 7.044 0.835 9.859 2.505 0.323 0.175 0.579 0.263 0.768 0.263 0.337 0 0.623-0.118 0.859-0.354s0.354-0.522 0.354-0.859zM26.889 12.99c0-0.633-0.269-1.104-0.808-1.414-1.697-0.983-3.67-1.727-5.919-2.232s-4.559-0.758-6.929-0.758c-2.747 0-5.199 0.316-7.354 0.95-0.31 0.094-0.569 0.266-0.778 0.515s-0.313 0.576-0.313 0.98c0 0.418 0.138 0.768 0.414 1.050s0.623 0.424 1.040 0.424c0.148 0 0.417-0.054 0.808-0.162 1.791-0.498 3.859-0.748 6.202-0.748 2.141 0 4.226 0.229 6.253 0.687s3.734 1.098 5.121 1.919c0.283 0.162 0.552 0.242 0.808 0.242 0.39 0 0.731-0.138 1.020-0.414s0.434-0.623 0.434-1.040zM31.030 16c0 2.815-0.694 5.411-2.081 7.788s-3.269 4.259-5.647 5.647c-2.377 1.387-4.973 2.081-7.788 2.081s-5.411-0.694-7.788-2.081c-2.377-1.387-4.259-3.269-5.646-5.647s-2.081-4.973-2.081-7.788 0.694-5.411 2.081-7.788c1.387-2.377 3.269-4.259 5.646-5.646s4.973-2.081 7.788-2.081 5.411 0.694 7.788 2.081c2.377 1.387 4.259 3.269 5.647 5.646s2.081 4.973 2.081 7.788z"></path>
</symbol>
<symbol id="icon-youtube" viewBox="0 0 43 32">
<path d="M17.067 22.603l11.072-6.603-11.072-6.603v13.206zM41.728 5.369c0.277 1.035 0.469 2.421 0.597 4.182 0.149 1.761 0.213 3.28 0.213 4.6l0.128 1.849c0 4.82-0.341 8.364-0.939 10.631-0.533 1.981-1.771 3.258-3.691 3.808-1.003 0.286-2.837 0.484-5.653 0.616-2.773 0.154-5.312 0.22-7.659 0.22l-3.392 0.132c-8.939 0-14.507-0.352-16.704-0.968-1.92-0.55-3.157-1.827-3.691-3.808-0.277-1.035-0.469-2.421-0.597-4.182-0.149-1.761-0.213-3.28-0.213-4.6l-0.128-1.849c0-4.82 0.341-8.364 0.939-10.631 0.533-1.981 1.771-3.258 3.691-3.808 1.003-0.286 2.837-0.484 5.653-0.616 2.773-0.154 5.312-0.22 7.659-0.22l3.392-0.132c8.939 0 14.507 0.352 16.704 0.968 1.92 0.55 3.157 1.827 3.691 3.808z"></path>
</symbol>
<symbol id="icon-youtube-green" viewBox="0 0 43 32">
<path fill="#000" style="fill: var(--color2, #000)" d="M15.407 0.593h11.852c8.509 0 15.407 6.898 15.407 15.407s-6.898 15.407-15.407 15.407h-11.852c-8.509 0-15.407-6.898-15.407-15.407s6.898-15.407 15.407-15.407z"></path>
<path fill="#aab91e" style="fill: var(--color1, #aab91e)" d="M17.067 22.603l11.072-6.603-11.072-6.603v13.206zM41.728 5.369c0.277 1.035 0.469 2.421 0.597 4.182 0.149 1.761 0.213 3.28 0.213 4.6l0.128 1.849c0 4.82-0.341 8.364-0.939 10.631-0.533 1.981-1.771 3.258-3.691 3.808-1.003 0.286-2.837 0.484-5.653 0.616-2.773 0.154-5.312 0.22-7.659 0.22l-3.392 0.132c-8.939 0-14.507-0.352-16.704-0.968-1.92-0.55-3.157-1.827-3.691-3.808-0.277-1.035-0.469-2.421-0.597-4.182-0.149-1.761-0.213-3.28-0.213-4.6l-0.128-1.849c0-4.82 0.341-8.364 0.939-10.631 0.533-1.981 1.771-3.258 3.691-3.808 1.003-0.286 2.837-0.484 5.653-0.616 2.773-0.154 5.312-0.22 7.659-0.22l3.392-0.132c8.939 0 14.507 0.352 16.704 0.968 1.92 0.55 3.157 1.827 3.691 3.808z"></path>
</symbol>
<symbol id="icon-deezer-big" viewBox="0 0 48 32">
<path d="M37.622 15.059h10.378v-6.059h-10.378v6.059zM37.622 0.568v6.056h10.378v-6.056h-10.378zM37.622 23.49h10.378v-6.057h-10.378v6.057zM0 31.924h10.378v-6.056h-10.378v6.056zM12.539 31.924h10.377v-6.056h-10.377v6.056zM25.082 31.924h10.378v-6.056h-10.377l-0.001 6.056zM37.622 31.924h10.378v-6.056h-10.378v6.056zM25.083 23.49h10.377v-6.057h-10.377v6.057zM12.54 23.49h10.377v-6.057h-10.377l0.001 6.057zM12.54 15.059h10.377v-6.059h-10.377l0.001 6.059z"></path>
</symbol>
<symbol id="icon-google-podcast-big" viewBox="0 0 32 32">
<path d="M2.004 12.904c-1.107 0-2 0.893-2 2v2.173c0 0.263 0.052 0.523 0.152 0.765s0.248 0.463 0.434 0.649 0.406 0.333 0.649 0.434c0.243 0.101 0.503 0.152 0.765 0.152s0.523-0.052 0.765-0.152c0.243-0.101 0.463-0.248 0.649-0.434s0.333-0.406 0.434-0.649c0.1-0.243 0.152-0.503 0.152-0.765v-2.173c0-1.107-0.893-2-2-2zM29.996 12.904c-1.107 0-2 0.893-2 2v2.173c0 0.53 0.211 1.039 0.586 1.414s0.884 0.586 1.414 0.586c0.53 0 1.039-0.211 1.414-0.586s0.586-0.884 0.586-1.414v-2.173c0-1.107-0.893-2-2-2zM8.907 19.449c-1.107 0-2 0.893-2 2v2.173c0 0.53 0.211 1.039 0.586 1.414s0.884 0.586 1.414 0.586c0.53 0 1.039-0.211 1.414-0.586s0.586-0.884 0.586-1.414v-2.16c0-1.107-0.893-2-2-2v-0.013zM8.907 6.36c-1.107 0-2 0.893-2 2v7.143c0 0.53 0.211 1.039 0.586 1.414s0.884 0.586 1.414 0.586c0.53 0 1.039-0.211 1.414-0.586s0.586-0.884 0.586-1.414v-7.159c0-1.107-0.893-2-2-2v0.016zM23.091 6.36c-1.107 0-2 0.893-2 2v2.187c0 0.53 0.211 1.039 0.586 1.414s0.884 0.586 1.414 0.586c0.53 0 1.039-0.211 1.414-0.586s0.586-0.884 0.586-1.414v-2.187c0-1.107-0.893-2-2-2zM16 0c-1.107 0-2 0.893-2 2v2.173c0 0.53 0.211 1.039 0.586 1.414s0.884 0.586 1.414 0.586c0.53 0 1.039-0.211 1.414-0.586s0.586-0.884 0.586-1.414v-2.173c0-1.107-0.893-1.999-2-1.999v-0.001zM16 25.807c-1.107 0-2 0.893-2 2v2.187c-0.001 0.263 0.050 0.523 0.15 0.766s0.246 0.464 0.431 0.65 0.405 0.334 0.647 0.436c0.242 0.101 0.502 0.154 0.765 0.155s0.523-0.050 0.766-0.15c0.243-0.1 0.464-0.246 0.65-0.431s0.334-0.405 0.436-0.647c0.101-0.242 0.154-0.502 0.155-0.765v-2.187c0-1.093-0.893-2-2-2v-0.013zM23.092 14.531c-1.107 0-2 0.907-2 2v7.104c0 0.53 0.211 1.039 0.586 1.414s0.884 0.586 1.414 0.586c0.53 0 1.039-0.211 1.414-0.586s0.586-0.884 0.586-1.414v-7.105c0-1.107-0.893-1.999-2-1.999zM16 8.171c-1.107 0-2 0.907-2 2v11.637c0 0.53 0.211 1.039 0.586 1.414s0.884 0.586 1.414 0.586c0.53 0 1.039-0.211 1.414-0.586s0.586-0.884 0.586-1.414v-11.624c0-1.107-0.893-2-2-2v-0.013z"></path>
</symbol>
<symbol id="icon-podcast-big" viewBox="0 0 32 32">
<path d="M7.12 0c-0.936-0.002-1.862 0.181-2.727 0.538s-1.651 0.881-2.312 1.543c-0.662 0.662-1.186 1.447-1.543 2.312s-0.54 1.792-0.538 2.727v17.76c-0.002 0.936 0.181 1.862 0.538 2.727s0.881 1.651 1.543 2.312c0.662 0.662 1.447 1.186 2.312 1.543s1.792 0.54 2.727 0.538h17.76c0.936 0.002 1.862-0.181 2.727-0.538s1.651-0.881 2.312-1.543c0.662-0.662 1.186-1.447 1.543-2.312s0.54-1.792 0.538-2.727v-17.76c0.002-0.936-0.181-1.862-0.538-2.727s-0.881-1.651-1.543-2.312c-0.662-0.662-1.447-1.186-2.312-1.543s-1.792-0.54-2.727-0.538h-17.76zM15.82 3.424c3.115 0 5.931 1.203 8.075 3.449 1.632 1.696 2.549 3.492 3.019 5.856 0.16 0.787 0.16 2.933 0.009 3.819-0.499 2.814-2.042 5.336-4.32 7.061-0.811 0.613-2.795 1.681-3.115 1.681-0.117 0-0.128-0.121-0.075-0.613 0.096-0.789 0.192-0.953 0.64-1.141 0.715-0.299 1.931-1.165 2.677-1.913 1.302-1.301 2.227-2.93 2.677-4.715 0.277-1.099 0.245-3.541-0.064-4.672-0.971-3.595-3.904-6.389-7.499-7.136-1.045-0.213-2.944-0.213-4 0-3.637 0.747-6.645 3.68-7.563 7.371-0.245 1.003-0.245 3.445 0 4.448 0.608 2.443 2.187 4.683 4.256 6.016 0.405 0.267 0.896 0.544 1.099 0.629 0.448 0.192 0.544 0.352 0.629 1.141 0.053 0.48 0.040 0.619-0.075 0.619-0.075 0-0.619-0.235-1.195-0.512l-0.053-0.040c-3.296-1.621-5.408-4.365-6.176-8.016-0.192-0.941-0.224-3.189-0.040-4.053 0.48-2.32 1.397-4.133 2.923-5.739 2.197-2.316 5.024-3.541 8.171-3.541l-0.001 0.001zM15.999 7.171c0.545 0.005 1.071 0.053 1.475 0.141 3.712 0.827 6.347 4.544 5.835 8.232-0.203 1.485-0.715 2.707-1.621 3.84-0.448 0.573-1.536 1.533-1.728 1.533-0.031 0-0.064-0.363-0.064-0.804v-0.807l0.555-0.661c2.091-2.504 1.941-6.003-0.341-8.299-0.885-0.893-1.909-1.419-3.232-1.661-0.853-0.157-1.035-0.157-1.931-0.011-1.36 0.223-2.413 0.749-3.349 1.675-2.293 2.272-2.443 5.789-0.352 8.296l0.551 0.661v0.811c0 0.448-0.036 0.811-0.080 0.811-0.040 0-0.352-0.213-0.683-0.48l-0.045-0.015c-1.109-0.885-2.091-2.456-2.496-3.996-0.245-0.931-0.245-2.699 0.011-3.627 0.672-2.504 2.517-4.447 5.077-5.359 0.547-0.193 1.512-0.293 2.42-0.281zM15.825 11.157c0.413 0 0.827 0.080 1.125 0.237 0.663 0.358 1.161 0.96 1.387 1.679 0.619 2.104-1.611 3.947-3.627 3.005h-0.020c-0.949-0.441-1.461-1.275-1.472-2.36 0-0.977 0.544-1.828 1.483-2.327 0.299-0.156 0.711-0.235 1.124-0.235zM15.811 17.461c1.317-0.005 2.275 0.465 2.627 1.293 0.264 0.619 0.165 2.576-0.291 5.736-0.309 2.208-0.48 2.765-0.907 3.141-0.587 0.52-1.419 0.664-2.208 0.384h-0.004c-0.955-0.343-1.16-0.807-1.552-3.525-0.455-3.16-0.555-5.117-0.291-5.736 0.349-0.821 1.299-1.288 2.627-1.293h-0.001z"></path>
</symbol>
<symbol id="icon-spotify-big" viewBox="0 0 32 32">
<path d="M23.479 22.542c0-0.444-0.208-0.799-0.625-1.063-2.681-1.597-5.785-2.396-9.313-2.396-1.847 0-3.84 0.236-5.979 0.708-0.583 0.125-0.875 0.486-0.875 1.083 0 0.278 0.094 0.517 0.281 0.719s0.434 0.302 0.74 0.302c0.069 0 0.326-0.056 0.771-0.167 1.833-0.375 3.521-0.562 5.063-0.562 3.139 0 5.896 0.715 8.271 2.146 0.264 0.153 0.493 0.229 0.688 0.229 0.264 0 0.493-0.094 0.688-0.281s0.292-0.427 0.292-0.719zM25.479 18.063c0-0.556-0.243-0.979-0.729-1.271-3.292-1.958-7.097-2.938-11.417-2.938-2.125 0-4.229 0.292-6.312 0.875-0.667 0.181-1 0.625-1 1.333 0 0.347 0.122 0.642 0.365 0.885s0.538 0.365 0.885 0.365c0.097 0 0.354-0.056 0.771-0.167 1.694-0.458 3.438-0.688 5.229-0.688 3.875 0 7.264 0.861 10.167 2.583 0.333 0.181 0.597 0.271 0.792 0.271 0.347 0 0.642-0.122 0.885-0.365s0.365-0.538 0.365-0.885zM27.729 12.896c0-0.653-0.278-1.139-0.833-1.458-1.75-1.014-3.785-1.781-6.104-2.302s-4.701-0.781-7.146-0.781c-2.833 0-5.361 0.326-7.583 0.979-0.319 0.097-0.587 0.274-0.802 0.531s-0.323 0.594-0.323 1.010c0 0.431 0.142 0.792 0.427 1.083s0.642 0.438 1.073 0.438c0.153 0 0.431-0.056 0.833-0.167 1.847-0.514 3.979-0.771 6.396-0.771 2.208 0 4.358 0.236 6.448 0.708s3.851 1.132 5.281 1.979c0.292 0.167 0.569 0.25 0.833 0.25 0.403 0 0.753-0.142 1.052-0.427s0.448-0.642 0.448-1.073zM32 16c0 2.903-0.715 5.58-2.146 8.031s-3.372 4.392-5.823 5.823c-2.451 1.431-5.128 2.146-8.031 2.146s-5.58-0.715-8.031-2.146c-2.451-1.431-4.392-3.372-5.823-5.823s-2.146-5.128-2.146-8.031c0-2.903 0.715-5.58 2.146-8.031s3.372-4.392 5.823-5.823c2.451-1.431 5.128-2.146 8.031-2.146s5.58 0.715 8.031 2.146c2.451 1.431 4.392 3.372 5.823 5.823s2.146 5.128 2.146 8.031z"></path>
</symbol>
<symbol id="icon-youtube-big" viewBox="0 0 44 32">
<path d="M17.723 22.857l11.498-6.857-11.498-6.857v13.714zM43.333 4.96c0.288 1.074 0.487 2.514 0.62 4.343 0.155 1.829 0.222 3.406 0.222 4.777l0.133 1.92c0 5.006-0.354 8.686-0.975 11.040-0.554 2.057-1.839 3.383-3.833 3.954-1.041 0.297-2.946 0.503-5.871 0.64-2.88 0.16-5.516 0.229-7.953 0.229l-3.522 0.137c-9.282 0-15.065-0.366-17.346-1.006-1.994-0.571-3.279-1.897-3.833-3.954-0.288-1.074-0.487-2.514-0.62-4.343-0.155-1.829-0.222-3.406-0.222-4.777l-0.133-1.92c0-5.006 0.354-8.686 0.975-11.040 0.554-2.057 1.839-3.383 3.833-3.954 1.041-0.297 2.946-0.503 5.871-0.64 2.88-0.16 5.516-0.229 7.953-0.229l3.522-0.137c9.282 0 15.065 0.366 17.346 1.006 1.994 0.571 3.279 1.897 3.833 3.954z"></path>
</symbol>
<symbol id="icon-book" viewBox="0 0 32 32">
<path fill="#fff" style="fill: var(--color1, #fff)" d="M16 29.439c-0.4 0-0.8-0.093-1.133-0.28-2.493-1.36-6.88-2.8-9.627-3.16l-0.387-0.053c-1.747-0.213-3.187-1.853-3.187-3.627v-16.107c0-1.053 0.413-2.013 1.173-2.707s1.747-1.027 2.787-0.933c2.933 0.227 7.36 1.693 9.867 3.267l0.32 0.187c0.093 0.053 0.293 0.053 0.373 0.013l0.213-0.133c2.507-1.573 6.933-3.067 9.88-3.32 0.027 0 0.133 0 0.16 0 0.973-0.093 1.973 0.253 2.72 0.947 0.76 0.693 1.173 1.653 1.173 2.707v16.093c0 1.787-1.44 3.413-3.2 3.627l-0.44 0.053c-2.747 0.36-7.147 1.813-9.587 3.16-0.32 0.187-0.707 0.267-1.107 0.267zM5.307 4.559c-0.427 0-0.813 0.147-1.12 0.427-0.333 0.307-0.52 0.747-0.52 1.227v16.107c0 0.787 0.68 1.547 1.44 1.653l0.4 0.053c3 0.4 7.6 1.907 10.267 3.36 0.12 0.053 0.293 0.067 0.36 0.040 2.667-1.48 7.293-3 10.307-3.4l0.453-0.053c0.76-0.093 1.44-0.867 1.44-1.653v-16.093c0-0.493-0.187-0.92-0.52-1.24-0.347-0.307-0.787-0.453-1.28-0.427-0.027 0-0.133 0-0.16 0-2.547 0.227-6.653 1.6-8.893 3l-0.213 0.147c-0.733 0.453-1.773 0.453-2.48 0.013l-0.32-0.187c-2.28-1.4-6.387-2.76-9-2.973-0.053 0-0.107 0-0.16 0z"></path>
<path fill="#fff" style="fill: var(--color1, #fff)" d="M16 28.32c-0.547 0-1-0.453-1-1v-20c0-0.547 0.453-1 1-1s1 0.453 1 1v20c0 0.56-0.453 1-1 1z"></path>
<path fill="#fff" style="fill: var(--color1, #fff)" d="M10.333 12.32h-3c-0.547 0-1-0.453-1-1s0.453-1 1-1h3c0.547 0 1 0.453 1 1s-0.453 1-1 1z"></path>
<path fill="#fff" style="fill: var(--color1, #fff)" d="M11.333 16.32h-4c-0.547 0-1-0.453-1-1s0.453-1 1-1h4c0.547 0 1 0.453 1 1s-0.453 1-1 1z"></path>
</symbol>
<symbol id="icon-monitor" viewBox="0 0 32 32">
<path fill="#fff" style="fill: var(--color1, #fff)" d="M23.413 23.96h-14.827c-5.307 0-6.92-1.613-6.92-6.92v-8.453c0-5.307 1.613-6.92 6.92-6.92h14.813c5.307 0 6.92 1.613 6.92 6.92v8.44c0.013 5.32-1.6 6.933-6.907 6.933zM8.587 3.667c-4.187 0-4.92 0.733-4.92 4.92v8.44c0 4.187 0.733 4.92 4.92 4.92h14.813c4.187 0 4.92-0.733 4.92-4.92v-8.44c0-4.187-0.733-4.92-4.92-4.92h-14.813z"></path>
<path fill="#fff" style="fill: var(--color1, #fff)" d="M16 30.333c-0.547 0-1-0.453-1-1v-6.373c0-0.547 0.453-1 1-1s1 0.453 1 1v6.373c0 0.547-0.453 1-1 1z"></path>
<path fill="#fff" style="fill: var(--color1, #fff)" d="M29.333 18.333h-26.667c-0.547 0-1-0.453-1-1s0.453-1 1-1h26.667c0.547 0 1 0.453 1 1s-0.453 1-1 1z"></path>
<path fill="#fff" style="fill: var(--color1, #fff)" d="M22 30.333h-12c-0.547 0-1-0.453-1-1s0.453-1 1-1h12c0.547 0 1 0.453 1 1s-0.453 1-1 1z"></path>
</symbol>
<symbol id="icon-profile-user" viewBox="0 0 32 32">
<path fill="#fff" style="fill: var(--color1, #fff)" d="M12.214 15.493c-0.040 0-0.067 0-0.107 0-0.067-0.013-0.16-0.013-0.24 0-3.867-0.12-6.787-3.16-6.787-6.907 0-3.813 3.107-6.92 6.92-6.92s6.92 3.107 6.92 6.92c-0.013 3.747-2.947 6.787-6.667 6.907-0.013 0-0.027 0-0.040 0zM12.001 3.667c-2.707 0-4.92 2.213-4.92 4.92 0 2.667 2.080 4.813 4.733 4.907 0.080-0.013 0.253-0.013 0.427 0 2.613-0.12 4.667-2.267 4.68-4.907 0-2.707-2.213-4.92-4.92-4.92z"></path>
<path fill="#fff" style="fill: var(--color1, #fff)" d="M22.054 15.667c-0.040 0-0.080 0-0.12-0.013-0.547 0.053-1.107-0.333-1.16-0.88s0.28-1.040 0.827-1.107c0.16-0.013 0.333-0.013 0.48-0.013 1.947-0.107 3.467-1.707 3.467-3.667 0-2.027-1.64-3.667-3.667-3.667-0.547 0.013-1-0.44-1-0.987s0.453-1 1-1c3.12 0 5.667 2.547 5.667 5.667 0 3.067-2.4 5.547-5.453 5.667-0.013 0-0.027 0-0.040 0z"></path>
<path fill="#fff" style="fill: var(--color1, #fff)" d="M12.226 30.067c-2.613 0-5.24-0.667-7.227-2-1.853-1.227-2.867-2.907-2.867-4.733s1.013-3.52 2.867-4.76c4-2.653 10.48-2.653 14.453 0 1.84 1.227 2.867 2.907 2.867 4.733s-1.013 3.52-2.867 4.76c-2 1.333-4.613 2-7.227 2zM6.106 20.253c-1.28 0.853-1.973 1.947-1.973 3.093 0 1.133 0.707 2.227 1.973 3.067 3.32 2.227 8.92 2.227 12.24 0 1.28-0.853 1.973-1.947 1.973-3.093 0-1.133-0.707-2.227-1.973-3.067-3.32-2.213-8.92-2.213-12.24 0z"></path>
<path fill="#fff" style="fill: var(--color1, #fff)" d="M24.454 27.667c-0.467 0-0.88-0.32-0.973-0.8-0.107-0.547 0.24-1.067 0.773-1.187 0.84-0.173 1.613-0.507 2.213-0.973 0.76-0.573 1.173-1.293 1.173-2.053s-0.413-1.48-1.16-2.040c-0.587-0.453-1.32-0.773-2.187-0.973-0.533-0.12-0.88-0.653-0.76-1.2 0.12-0.533 0.653-0.88 1.2-0.76 1.147 0.253 2.147 0.707 2.96 1.333 1.24 0.933 1.947 2.253 1.947 3.64s-0.72 2.707-1.96 3.653c-0.827 0.64-1.867 1.107-3.013 1.333-0.080 0.027-0.147 0.027-0.213 0.027z"></path>
</symbol>
<symbol id="icon-user" viewBox="0 0 32 32">
<path fill="#fff" style="fill: var(--color1, #fff)" d="M16 17c-4.227 0-7.667-3.44-7.667-7.667s3.44-7.667 7.667-7.667c4.227 0 7.667 3.44 7.667 7.667s-3.44 7.667-7.667 7.667zM16 3.667c-3.12 0-5.667 2.547-5.667 5.667s2.547 5.667 5.667 5.667c3.12 0 5.667-2.547 5.667-5.667s-2.547-5.667-5.667-5.667z"></path>
<path fill="#fff" style="fill: var(--color1, #fff)" d="M27.453 30.333c-0.547 0-1-0.453-1-1 0-4.6-4.693-8.333-10.453-8.333s-10.453 3.733-10.453 8.333c0 0.547-0.453 1-1 1s-1-0.453-1-1c0-5.693 5.587-10.333 12.453-10.333s12.453 4.64 12.453 10.333c0 0.547-0.453 1-1 1z"></path>
</symbol>
<symbol id="icon-previos" viewBox="0 0 30 32">
<path fill="#aab91e" style="fill: var(--color1, #aab91e)" d="M30.4 3.429l-21.809 12.571 21.809 12.571-2.644 3.429-27.756-16 27.756-16 2.644 3.429z"></path>
</symbol>
<symbol id="icon-next" viewBox="0 0 30 32">
<path fill="#aab91e" style="fill: var(--color1, #aab91e)" d="M0 28.571l21.809-12.571-21.809-12.571 2.643-3.429 27.757 16-27.757 16-2.643-3.429z"></path>
</symbol>
<symbol id="icon-plus" viewBox="0 0 32 32">
<path fill="#aab91e" style="fill: var(--color1, #aab91e)" d="M25.052 15.515v0.646c0 0.357-0.289 0.646-0.646 0.646h-7.434v7.434c0 0.357-0.289 0.646-0.646 0.646h-0.646c-0.357 0-0.646-0.289-0.646-0.646v-7.434h-7.434c-0.357 0-0.646-0.289-0.646-0.646v-0.646c0-0.357 0.289-0.646 0.646-0.646h7.434v-7.434c0-0.357 0.289-0.646 0.646-0.646h0.646c0.357 0 0.646 0.289 0.646 0.646v7.434h7.434c0.357 0 0.646 0.289 0.646 0.646z"></path>
</symbol>
</defs>
</svg>
